<svg width="21" height="21" viewBox="0 0 21 21" fill="none" xmlns="http://www.w3.org/2000/svg">
<path fill-rule="evenodd" clip-rule="evenodd" d="M9.7666 1.70654C5.2083 1.70654 1.52805 5.3566 1.52805 9.84078C1.52805 14.325 5.2083 17.975 9.7666 17.975C14.3249 17.975 18.0052 14.325 18.0052 9.84078C18.0052 5.3566 14.3249 1.70654 9.7666 1.70654ZM0.0280457 9.84078C0.0280457 4.51171 4.39643 0.206543 9.7666 0.206543C15.1368 0.206543 19.5052 4.51171 19.5052 9.84078C19.5052 15.1699 15.1368 19.475 9.7666 19.475C4.39643 19.475 0.0280457 15.1699 0.0280457 9.84078Z" fill="#363853"/>
<path fill-rule="evenodd" clip-rule="evenodd" d="M15.4842 15.9549C15.775 15.6599 16.2499 15.6565 16.5448 15.9473L20.0689 19.4214C20.3638 19.7122 20.3672 20.1871 20.0764 20.4821C19.7856 20.777 19.3108 20.7804 19.0158 20.4896L15.4918 17.0155C15.1968 16.7248 15.1934 16.2499 15.4842 15.9549Z" fill="#363853"/>
</svg>
